PathFileType	4	(X/Y/Z)	T1_P2_Vision_NoMovement_4_0-734.trc
DataRate	CameraRate	NumFrames	NumMarkers	Units	OrigDataRate	OrigDataStartFrame	OrigNumFrames
60	60	4	27	m	60	458	734
Frame#	Time	RHip			RKnee			RAnkle			RBigToe			RSmallToe			RHeel			LHip			LKnee			LAnkle			LBigToe			LSmallToe			LHeel			Neck			Head			Nose			RShoulder			RElbow			RWrist			RThumb			RIndex			RPinky			LShoulder			LElbow			LWrist			LThumb			LIndex			LPinky		
		X1	Y1	Z1	X2	Y2	Z2	X3	Y3	Z3	X4	Y4	Z4	X5	Y5	Z5	X6	Y6	Z6	X7	Y7	Z7	X8	Y8	Z8	X9	Y9	Z9	X10	Y10	Z10	X11	Y11	Z11	X12	Y12	Z12	X13	Y13	Z13	X14	Y14	Z14	X15	Y15	Z15	X16	Y16	Z16	X17	Y17	Z17	X18	Y18	Z18	X19	Y19	Z19	X20	Y20	Z20	X21	Y21	Z21	X22	Y22	Z22	X23	Y23	Z23	X24	Y24	Z24	X25	Y25	Z25	X26	Y26	Z26	X27	Y27	Z27
459	7.65	457.39856637147227	3731.8873856313285	671.1301890793175	840.1054566941914	3710.8040631133235	652.1676260209584	1214.4851588500217	3731.1291272983353	692.3512896598425	1293.7396485306895	3649.7744731005523	655.950891485226	1286.6945635123175	3691.4095528366215	607.537655497532	1276.8905793784172	3791.7552279992788	743.9150312029522	468.66875727666803	3648.5918422291566	866.9732304764257	841.6946827656225	3614.941686735663	844.3169871656177	1224.5947500360476	3674.442967549718	853.2585782331448	1305.491500205851	3559.9146224289493	809.2634164797983	1278.9548446685824	3537.9594893662197	840.067866875546	1264.2421003909437	3728.529732009408	864.1001864437618	-135.44506874711098	3671.2392158942284	776.4324878335725	-398.0722403965244	3657.5933940558257	739.582555974213	-262.7384250671355	3600.1502711107523	738.3221330533702	-43.78122956820224	3773.563657744562	655.2286354472873	196.41878971255753	3763.1501556075573	564.8978129700976	345.33474373667406	3562.5083947505127	633.911750493217	398.1124912810606	3523.665457114587	698.6957213452074	422.16937779740755	3543.578382121568	738.0743995229745	439.5841523549558	3524.5009932448334	724.7191641104812	-41.787221888739104	3649.4013781358444	958.6010437377028	209.59592283239255	3532.948441509861	934.8303887131297	364.00848404948164	3499.9102397006436	759.086174879703	387.09999430850223	3505.4622845332215	657.2163519565677	425.1087988096284	3566.7076582766094	673.4909315057173	459.49972961052765	3516.6412288946426	722.1505284123444
460	7.666666666666667	455.6955766574981	3731.2341947352234	670.7152858309253	839.5506166399576	3712.4463057598005	652.5191391475169	1214.556349678127	3729.787962483326	691.013353319692	1292.171116610329	3644.2881755324033	653.0041955631494	1287.2548923636878	3689.9602521628894	606.7663977791885	1276.8380259827995	3791.9543652049615	743.5244316611801	467.9538621086939	3648.060818846569	866.6999162533992	841.8219562276918	3613.7332414581306	843.5366522080055	1225.8171137536885	3675.362325600748	853.5993609723555	1303.9801995346986	3557.5032453397807	806.9647543267195	1278.5900816646983	3537.425822422976	840.2398359157842	1265.3069005524958	3729.122441349896	864.2418970626549	-135.38862893506868	3671.1967962770113	776.3502912383531	-398.15205423741475	3657.6124329830154	739.5204368213393	-262.70330482038304	3598.5291871114964	736.7924238405801	-43.87511527289917	3773.5508004217636	655.2034926908582	195.03383760960898	3764.2915541394545	565.0641700249828	344.5983007573353	3562.368310382454	633.783533340088	397.9771504703604	3524.62485266559	697.1939736069878	421.81309576419324	3544.808244871751	737.649216415244	440.854312269382	3530.288621643819	725.6257767275107	-41.94050823496026	3644.8570807487513	954.3941798142779	208.91886961566468	3532.3599007777134	934.4802097885303	364.03047152311785	3500.129654905113	759.3582381525621	386.94534758408656	3505.60304628407	657.0796237665476	427.07145577672594	3574.463349466752	677.7980827189881	460.6139708891386	3517.333446113449	722.5126748922966
461	7.683333333333334	454.23406265097856	3730.6261040490567	670.340374873692	838.368566493594	3712.444994037337	652.5243747536556	1214.4818910176823	3729.170293438272	690.7271166029627	1291.1637487641378	3640.3122737453873	650.4384672429451	1287.7558140901297	3688.578836432657	606.0447740659984	1276.7166035170367	3791.4544412277164	743.779612693072	466.48459941381543	3647.01296698187	866.2396639569793	841.5153039429686	3613.794578316501	843.6484234284508	1226.3656350966526	3675.5481687758092	853.6904186277882	1302.9743472954772	3556.1071182266323	805.6094857331102	1278.2707803549129	3536.786486140079	840.7699680133413	1265.1527280549956	3728.99349598502	864.214397024027	-135.3352472011493	3671.0836411823598	776.3675738281445	-398.3192853007758	3658.1098486807955	739.8324234982673	-262.57325844117065	3594.5340603062905	732.6116870516018	-43.95939011391111	3773.5850623435117	655.1982639078899	193.97830111470762	3766.8640327000885	565.5750828451985	343.673280839493	3562.146856121846	633.6087236224419	397.6196731318124	3523.521448655228	695.2713682545917	421.86587362123987	3545.462682128707	737.1381187287656	443.2824179354169	3537.7640568330926	728.0315561042438	-42.006727239846114	3642.9551622590616	952.6515212022008	207.23621485010364	3531.0230517723558	933.7608798013483	364.9667699842485	3500.950047415813	759.7349566372585	386.7313205496838	3505.049067967138	658.2028752642013	429.4193114396172	3581.171287752698	683.3780793415581	460.9610937717074	3518.4003851250864	723.1428735495904
462	7.7	453.5780295400942	3730.2816296959672	670.1447575483637	837.7668927789305	3714.4576600958685	653.1725842206596	1213.673427376782	3728.476955451606	690.8364078111352	1291.5349431143793	3640.5486715930556	649.9285447557338	1287.6968858425107	3688.4704915913753	606.0103983858021	1275.9845977525188	3790.2821208671126	744.2679086690536	465.109172037396	3646.0741647850327	865.8586451171399	841.3473149841269	3615.8641211155164	845.4943244944793	1225.550952683986	3674.6579152859163	853.3847569538793	1303.9538715905649	3557.4861661917575	806.7915547408121	1278.6957466224071	3536.619924910611	841.7821422974168	1263.4390439009514	3727.929128753005	863.9143452611034	-135.30132258126673	3671.0158898695836	776.3761757938104	-398.44806786186564	3658.485801031605	739.9990774540832	-262.3470986349401	3589.296435542276	726.9554278620034	-43.87808282495594	3773.554804962438	655.1647318930944	193.56289413666522	3768.314297310807	565.8450530163458	343.76361005603394	3562.1914603689647	633.6196518054227	397.52735936755823	3523.349521823997	695.7424331759711	422.072301477961	3545.7972832375963	736.9810410857687	445.601034005198	3540.955850982918	729.8573521641163	-42.02708347698979	3642.8215802418513	952.5389061547884	205.79194556432546	3529.90923997769	933.1831169831105	365.7080714344917	3500.082477049098	758.6516594139126	386.52781123764515	3504.1540367648863	659.4220030581014	431.0642330932302	3584.1135455185795	686.9062116515081	461.0484260176933	3518.8582431264	723.442297491715
